<svg version="1.2" xmlns="http://www.w3.org/2000/svg" viewBox="0 0 1500 401" width="1500" height="401"><defs><clipPath clipPathUnits="userSpaceOnUse" id="cp1"><path d="m21.33 23.54h365.34v353.79h-365.34z"/></clipPath><clipPath clipPathUnits="userSpaceOnUse" id="cp2"><path d="m209.98 192h52.69v46.67h-52.69z"/></clipPath><clipPath clipPathUnits="userSpaceOnUse" id="cp3"><path d="m228 191.27h1.33v2.06h-1.33z"/></clipPath><clipPath clipPathUnits="userSpaceOnUse" id="cp4"><path d="m221.33 191.27h1.34v0.73h-1.34z"/></clipPath><clipPath clipPathUnits="userSpaceOnUse" id="cp5"><path d="m220 191.27h2.67v2.06h-2.67z"/></clipPath><clipPath clipPathUnits="userSpaceOnUse" id="cp6"><path d="m221.33 191.27h1.34v2.06h-1.34z"/></clipPath><clipPath clipPathUnits="userSpaceOnUse" id="cp7"><path d="m221.33 191.27h1.34v0.73h-1.34z"/></clipPath><clipPath clipPathUnits="userSpaceOnUse" id="cp8"><path d="m229.33 241.33h2.67v1.94h-2.67z"/></clipPath><clipPath clipPathUnits="userSpaceOnUse" id="cp9"><path d="m209.98 229.33h0.69v1.34h-0.69z"/></clipPath><clipPath clipPathUnits="userSpaceOnUse" id="cp10"><path d="m270.67 205.33h0.31v2.67h-0.31z"/></clipPath><clipPath clipPathUnits="userSpaceOnUse" id="cp11"><path d="m270.67 208h0.31v1.33h-0.31z"/></clipPath><clipPath clipPathUnits="userSpaceOnUse" id="cp12"><path d="m270.67 206.67h0.31v2.66h-0.31z"/></clipPath><clipPath clipPathUnits="userSpaceOnUse" id="cp13"><path d="m270.67 206.67h0.31v1.33h-0.31z"/></clipPath><clipPath clipPathUnits="userSpaceOnUse" id="cp14"><path d="m270.67 208h0.31v1.33h-0.31z"/></clipPath><clipPath clipPathUnits="userSpaceOnUse" id="cp15"><path d="m66.67 142.67h30.66v22.66h-30.66z"/></clipPath><clipPath clipPathUnits="userSpaceOnUse" id="cp16"><path d="m35.39 148.71l58.29-9.11 20.38 130.42-58.29 9.11z"/></clipPath><clipPath clipPathUnits="userSpaceOnUse" id="cp17"><path d="m35.39 148.71l58.29-9.11 20.38 130.42-58.29 9.11z"/></clipPath><clipPath clipPathUnits="userSpaceOnUse" id="cp18"><path d="m45.33 208h42.67v10.67h-42.67z"/></clipPath><clipPath clipPathUnits="userSpaceOnUse" id="cp19"><path d="m35.39 148.71l58.29-9.11 20.38 130.42-58.29 9.11z"/></clipPath><clipPath clipPathUnits="userSpaceOnUse" id="cp20"><path d="m35.39 148.71l58.29-9.11 20.38 130.42-58.29 9.11z"/></clipPath><clipPath clipPathUnits="userSpaceOnUse" id="cp21"><path d="m81.33 249.33h25.34v25.34h-25.34z"/></clipPath><clipPath clipPathUnits="userSpaceOnUse" id="cp22"><path d="m35.39 148.71l58.29-9.11 20.38 130.42-58.29 9.11z"/></clipPath><clipPath clipPathUnits="userSpaceOnUse" id="cp23"><path d="m35.39 148.71l58.29-9.11 20.38 130.42-58.29 9.11z"/></clipPath><clipPath clipPathUnits="userSpaceOnUse" id="cp24"><path d="m80 233.33h9.33v10.67h-9.33z"/></clipPath><clipPath clipPathUnits="userSpaceOnUse" id="cp25"><path d="m35.39 148.71l58.29-9.11 20.38 130.42-58.29 9.11z"/></clipPath><clipPath clipPathUnits="userSpaceOnUse" id="cp26"><path d="m35.39 148.71l58.29-9.11 20.38 130.42-58.29 9.11z"/></clipPath><clipPath clipPathUnits="userSpaceOnUse" id="cp27"><path d="m77.33 176h10.67v8h-10.67z"/></clipPath><clipPath clipPathUnits="userSpaceOnUse" id="cp28"><path d="m35.39 148.71l58.29-9.11 20.38 130.42-58.29 9.11z"/></clipPath><clipPath clipPathUnits="userSpaceOnUse" id="cp29"><path d="m35.39 148.71l58.29-9.11 20.38 130.42-58.29 9.11z"/></clipPath><clipPath clipPathUnits="userSpaceOnUse" id="cp30"><path d="m322.67 138.67h36v22.66h-36z"/></clipPath><clipPath clipPathUnits="userSpaceOnUse" id="cp31"><path d="m330.36 132.95l62.74 16.98-38.16 140.93-62.74-16.99z"/></clipPath><clipPath clipPathUnits="userSpaceOnUse" id="cp32"><path d="m393.04 149.92l-62.74-16.99-38.16 140.92 62.74 16.99z"/></clipPath><clipPath clipPathUnits="userSpaceOnUse" id="cp33"><path d="m328 209.33h45.33v16h-45.33z"/></clipPath><clipPath clipPathUnits="userSpaceOnUse" id="cp34"><path d="m330.36 132.95l62.74 16.98-38.16 140.93-62.74-16.99z"/></clipPath><clipPath clipPathUnits="userSpaceOnUse" id="cp35"><path d="m393.04 149.92l-62.74-16.99-38.16 140.92 62.74 16.99z"/></clipPath><clipPath clipPathUnits="userSpaceOnUse" id="cp36"><path d="m301.33 252h26.67v32h-26.67z"/></clipPath><clipPath clipPathUnits="userSpaceOnUse" id="cp37"><path d="m330.36 132.95l62.74 16.98-38.16 140.93-62.74-16.99z"/></clipPath><clipPath clipPathUnits="userSpaceOnUse" id="cp38"><path d="m393.04 149.92l-62.74-16.99-38.16 140.92 62.74 16.99z"/></clipPath><clipPath clipPathUnits="userSpaceOnUse" id="cp39"><path d="m322.67 236h9.33v12h-9.33z"/></clipPath><clipPath clipPathUnits="userSpaceOnUse" id="cp40"><path d="m330.36 132.95l62.74 16.98-38.16 140.93-62.74-16.99z"/></clipPath><clipPath clipPathUnits="userSpaceOnUse" id="cp41"><path d="m393.04 149.92l-62.74-16.99-38.16 140.92 62.74 16.99z"/></clipPath><clipPath clipPathUnits="userSpaceOnUse" id="cp42"><path d="m330.67 174.67h12v6.66h-12z"/></clipPath><clipPath clipPathUnits="userSpaceOnUse" id="cp43"><path d="m330.36 132.95l62.74 16.98-38.16 140.93-62.74-16.99z"/></clipPath><clipPath clipPathUnits="userSpaceOnUse" id="cp44"><path d="m393.04 149.92l-62.74-16.99-38.16 140.92 62.74 16.99z"/></clipPath></defs><style>.a{fill:#004aad}.b{fill:#fff}</style><g clip-path="url(#cp1)"><path class="a" d="m385.5 205.2c1.5-5.2 1.2-11.2-0.5-17.9-0.7-6.9-1.5-12.1-2.2-16.5-1-4.4-2-8.1-3.3-12-2.8-7.6-6.4-16.5-17-32.1-1.4-1.8-2.7-4.1-4.1-6.6-1.3-2.4-3.1-4.8-4.6-7-0.5-2.4-1.5-5.3-3.2-8.4-1.7-3-4.1-6.4-6.9-9.9-0.2-2.8-1.3-5.6-3.8-9.2-1.3-1.8-2.9-3.7-5-5.8-2.1-1.9-4.8-4-8-6.1-3.2-3.6-6.9-6.6-10.7-9.6-3.8-3.2-8-5.6-12.4-8.1-3-2-6-3.7-9.1-5.4-3.2-1.6-6.2-3.5-9.4-4.9 1.9 2.4 3.7 5.1 5.4 7.7-12.7-6.6-26-11.9-39.6-15.4-4.7-1.6-9.4-2.9-14.1-4.1-4.7-1.3-9.6-2.1-14.5-3-10.1-1.7-20.3-2.3-26.8-4.4 7.7-0.4 15.3 0.1 22.8 0.4 7.4 0.6 14.6 0.9 21.4 1.1-6.5-1.4-13.1-2.3-19.7-3.2-3.3-0.5-6.6-0.6-9.9-0.8-3.3-0.3-6.6-0.5-10-0.4q-5 0.1-9.9 0.4c-3.3 0.2-6.6 0.7-9.8 1.2-6.4 0.8-12.7 2.7-18.7 4.7-14.4 2.8-28.5 6.8-41.6 12.9-5.6 2.5-10.5 5.9-13.7 8.6-3.1 2.8-4.5 5-3.5 5.6 1.3 0.7 3.7 0.2 6.8-0.8 3.2-0.9 7-2.4 10.9-4.3 12.6-5.2 26.4-10.5 39.3-12.2 31.3-4 60.7-3.7 90.4 1.8 2.5 1.8 6.7 3.2 10.4 5.2 3.7 1.9 7.1 3.8 8.1 5.6-2.5-0.3-3.7 0.1-3.7 1-34.5-12.5-72.2-14.6-108.4-5.9-16.1 4-28.2 9.5-36.7 17.5-3.9 3.4-9.9 7.7-15.1 9.5-10.7 4.5-20.4 11.2-28.6 19.4-4.2 4-7.8 8.6-11.6 12.9-1.7 2.3-3.4 4.7-5.1 7l-2.6 3.4-2.4 3.6-5.2 6.5c-1.6 2.2-3.2 4.5-4.8 6.7-3.3 4.5-5.9 9.4-8.8 14.1-5.2 9.8-9.8 20.1-12.7 31.1-1.9 6.5-1 10.7 0.7 11.1 1 0.3 2.1-0.8 3.1-2.8 1.1-1.9 2.3-4.7 3.3-8 1.1-3.7 2.5-7.3 3.8-10.9 0.7-1.8 1.4-3.6 2.1-5.3l2.3-5.3c5.4-12 11.9-23.4 19.7-34.1 4.4-2.4 6.8-3.4 6.7-2.4 0 0.9-2.2 4.1-6.4 10.4-1.6 2.3-2.9 4.8-4.3 7.2-1.4 2.4-2.8 4.7-4 7.3 0 2.5-0.5 5.5-1.5 8.8-0.9 3.4-2.1 7.3-4 11.5-5.8 14.1-8.7 28.6-10.1 43-1.3 14.5-1 29-0.1 44.2 0.2 5.3 1.5 9.9 2.8 14.1 1.5 4.1 3 7.9 5 11.4 0.8 5.3 1.9 10.5 3.2 15.7 3.4 12.8 7.7 20.6 11.5 25.1 4.1 4.3 7.7 5.5 12.3 4.5 1.3-0.2 2.3-1 3.5-1.5 5 7.1 10.1 14.4 15.8 21.1 5.6 6.8 12.4 12.3 19.6 15.5 7.9 3.2 16.1 7.6 24.5 10.9 8.4 3.3 17.2 5.1 24.5 4.2-1.7-2.3-3.7-4.8-4.6-7.1-0.6-1.7 0-2.7 1.5-3.2 1.5-0.4 3.9 0 7.3 0.7q0.1 0 0.1 0c8.2 3.3 16.7 5.9 25.2 7.8 27.9 6.1 56.5 4.7 83.5-3.6 35-10.5 70.1-31 86.1-65.2 0.5-1 1.5-2.4 2.7-4 1.2-1.5 2.5-3.2 3.3-4.9 10.6-17.5 17.5-36.7 21.1-56.2 0.7-2.8 1.3-5.7 1.7-8.5 0.4-2.8 0.4-5.7 0.6-8.5 0-2.8 0.1-5.6 0-8.5q-0.2-4.2-0.3-8.4zm-149.3 8.7v0.1q0 0 0 0v0.1q-0.1 0.1-0.1 0.1 0 0 0 0 0 0.1 0 0.2 0-0.1 0-0.2 0.1-0.2 0.1-0.4 0 0.1 0 0.1zm0-0.5c0.1-0.1 0.1-0.1 0 0zm-0.1 2.8q0-0.1 0-0.1 0.3-0.2 0.7-0.5-0.4 0.3-0.7 0.6zm1.3-1q0.2-0.2 0.5-0.3-0.3 0.1-0.5 0.3zm3.3-1.6c0.3 0 0.4 0 0.6-0.1q-0.3 0-0.6 0.1zm-2.4 1q0.6-0.3 1.2-0.6c0.2-0.1 0.3-0.1 0.4-0.1q-0.8 0.3-1.6 0.7zm3.4-1.3c-0.1-0.1-0.1-0.1-0.2-0.1 0.1 0 0.1 0 0.2 0.1zm-0.1 0.2c0.4 0 0.6 0 0.6 0-0.1 0-0.2 0-0.6 0zm0.6 0q-0.1 0-0.1 0 0.1 0 0.1 0zm-0.4 0.4c0.1-0.2 0.1-0.3 0.1-0.2l-0.1 0.2q0 0 0 0zm0.9 1.9c0.1 0 0.3 0 0.3 0zm-8.8 8.9l-0.3-0.1h0.1l0.1 0.1zm2.1-10q0 0-0.1 0.1 0 0.1 0.1-0.3 0 0.1 0 0.2zm0.2-1.2q0 0 0 0 0 0 0 0 0-0.1 0-0.1 0 0 0 0c0 0.1 0 0.1 0 0.1l-0.1 0.3q0-0.1 0.1-0.1h-0.1v0.2q0-0.1 0-0.1zm0 0.2zm0-0.2v-0.1 0.1-0.1 0.1zm0.1-0.2h-0.1q0 0 0.1 0zm-0.1 0.2q0 0 0 0zm0 0.4l-0.1 0.7zm1.7 6.5l0.2-0.3 0.3-0.7c0.5-0.9 0.8-1.5 1.2-2.2l0.6-0.9 0.1-0.2c-0.1 0.2-0.1 0.2 0 0q0.1-0.1 0.2-0.1 0 0 0 0.1 0.5 0.5 0.9 1.1 0.2 0.2 0.3 0.4c0 0.4 0.1 1.2 0 2.1 0 0.9-0.3 2.7-0.9 4l-0.1 0.2q0 0.1 0 0.1c-1 0.5-2.6 1-4 0.9q-0.1 0-0.2 0c-0.2-0.4-0.4-0.9-0.6-1.4-0.2-0.7-0.3-1.4-0.4-1.9q0-0.2 0-0.5 0-0.1 0-0.3 0 0 0 0l0.1-0.9c1 0.2 1.8 0.4 2.1 0.5 0.1 0 0.1 0 0.2 0q0 0 0 0zm-2.4 0.9q0 0.1 0 0.3 0-0.2 0-0.3zm0-0.3v-0.2q0 0 0 0 0 0.1 0 0.2 0 0 0 0zm0-0.2q0 0 0 0 0 0 0 0 0 0 0 0 0 0 0 0 0 0 0 0zm3.7-4.4c0 0.1-0.1 0.1 0 0q0 0 0 0zm0-1.5q0 0.1 0 0.1-0.1-0.1 0-0.1zm3.2 3.8l-0.1-0.1v-0.1l-0.1-0.1c0.2 0.3 0.4 0.7 0.2 0.3zm-6.4-2.5q0 0 0 0 0 0 0 0zm0.3-2.6v0.1l-0.1 0.1zm95-121.1q-2.2-0.1-4.3-0.3l6 4.5 3 2.3 2.9 2.5-2.9-2.5-3-2.3-6-4.5zm10.1 12.1c1.5 2.6 2.9 5.5 4.4 8.4-1.5-2.9-2.9-5.8-4.4-8.4zm-197.9 256.2l0.5-0.7 2 1.1z"/></g><path class="a" d="m236.2 213.9v-0.1z"/><path class="a" d="m236.2 213.4q0 0.1 0 0.1 0 0 0 0z"/><path class="a" d="m236.1 214.2q0 0 0.1-0.1v-0.1q0 0.1-0.1 0.2 0 0 0 0z"/><g clip-path="url(#cp2)"><path class="a" d="m258.1 220.7c0-0.7 0.2-1.5 0.7-2.5 0-0.1 0.1-0.4 0.2-0.5 0-0.2 0-0.3 0-0.4q0.1-0.2 0.3-0.6 0.3-1-1-2.8-0.2-0.3-0.4-0.5 0.3-0.3 0.5-0.8 0.5 0.8 0.9 1.6v0.4q0.1-0.1 0.1-0.2 0.5 0.9 1 1.9c0.4 0.8 0.9 1.5 1.4 2.1q0.2 0.3 0.4 0.4 0.1 0.1 0.1 0.1c0.1-0.1 0.1-0.2 0.1-0.2-0.3-0.4-0.4-0.8-0.5-0.9-0.7-1-1.1-1.9-1.6-2.8q-0.7-1.5-1.5-2.9 0-0.1-0.1-0.2 0 0 0 0 0-0.2 0-0.2c0 0-0.1-0.1-0.2 0q-0.1-0.2-0.2-0.4 0 0 0.1 0.1c0.2 0 0.4 0 0.4 0 0.1-0.1 0-0.2-0.1-0.3q-0.5-0.3-1-0.5c-0.2 0-0.3 0-0.5 0 0 0 0 0 0.1 0.1q0.1 0.1 0.3 0.3c0 0.1 0.1 0.3 0.1 0.4q0.1 0.2 0.2 0.3 0.1 0.2 0.3 0.5-0.4 0.5-0.6 1.1-0.1 0-0.1 0.1c0 0.3-0.1 0.5-0.1 0.8q0 0.2 0.1 0.4-0.2-0.3-0.8-0.6-0.3-0.2-0.6-0.2-0.1-0.3-0.2-0.7c-0.1-0.3 0-0.6-0.1-0.9-0.2-0.8-0.7-1.6-1.3-2.1-0.1-0.4 0-0.6 0.2-0.9 0.2-0.3 0.2-0.8 0-1.3 0-0.4-0.2-0.8-0.4-1.3q0.5 0.2 1 0.5c0.7 0.3 1.6 0.6 2.4 0.8q0.2 0.1 0.5 0.1 0.1 0 0.1 0c0-0.1 0-0.2-0.1-0.2-0.4-0.2-0.8-0.3-0.9-0.4-1.2-0.4-2-0.8-2.9-1.2q-0.1-0.1-0.3-0.2-0.1-0.4 0.1-0.5c0.2 0 0.3-0.2 0.3-0.5q0-0.3 0-0.5 0.1 0 0.2 0c0.1 0 0.1 0 0.1 0 0-0.1 0-0.1-0.1-0.2q-0.1 0-0.2-0.1 0-0.5-0.1-1.1c0-0.5-0.5-1.4-1-1.7-0.3-0.2-0.6-0.3-0.8-0.3q-0.2 0.1-0.4 0.2-0.2 0-0.4 0 0 0 0 0.1 0 0.1 0.1 0.1-0.4 0.3-0.7 0.5c-0.3 0.2-0.4 0.5-0.7 0.6 0 0.1-0.2-0.1-0.3-0.1 0-0.2-0.1-0.4-0.1-0.5q0.8-1.1 1.5-2.2c0.1-0.1 0.1-0.2 0.1-0.2-0.1-0.2-0.2-0.3-0.4-0.3-0.8-0.2-1.5 0.2-1.9 0.7q-0.1 0.1-0.2 0.2-0.4-0.1-0.7-0.3c-0.4-0.2-0.8-0.2-1.2-0.2 0 0-0.2 0.1-0.2 0.2 0 0.2-0.1 0.4-0.1 0.5q0.6 0.4 1.1 0.8-0.4 0.2-0.7 0.3c-0.5 0.3-0.7 1.1-1.3 1.2-0.2 0-0.4 0.1-0.6 0.3-0.1-0.4-0.4-0.6-0.6-0.9-0.1-0.1-0.2-0.2-0.3-0.4 0-0.1 0-0.3 0-0.4q0-0.1 0-0.3 0.1 0.1 0.1 0.1 0.1 0.1 0.3 0.2c0 0 0.1 0 0.2 0 0-0.1 0-0.2-0.1-0.3 0-0.1-0.2-0.2-0.4-0.2q0 0 0 0 0-0.2 0.1-0.3c0.4 0.4 0.6 0.4 0.8 0.1 0.2-0.2 0.3-0.5 0.2-0.9q0-0.1 0-0.2 0-0.1 0-0.1c0.2-0.2 0.4-0.5 0.5-0.8 0.1-0.3 0.1-0.6 0-0.7q-0.1-0.3-0.3-0.2-0.3 0-0.5-0.2 0-0.3 0-0.5c0-0.5-0.6-1.3-0.9-1.5-0.5-0.1-1-0.2-1.5-0.4q-1.5-0.6-2.4 0c-0.1 0-0.3 0.1-0.5 0-0.3-0.2-0.4-0.8-0.6-1.1-0.2-0.2-0.5-0.5-0.6-0.6-0.6-0.3-1.1-0.1-1.5 0-2.3 0.6-4.6 1.2-6.5 2.5-0.2 0.2-0.4 0.3-0.6 0.4q-0.1 0-0.2 0.1 0.3-0.5 0.5-0.9c0.4-0.7 0.8-1.6 1-2.4q0.1-0.3 0.2-0.5 0-0.1-0.1-0.1c0-0.1-0.1 0-0.1 0-0.2 0.4-0.4 0.8-0.5 0.9-0.5 1.2-0.9 2-1.4 2.9q-0.3 0.5-0.5 1c-0.8 0.8-1.7 1.4-2.5 2 0.6-1.1 1.1-2.3 1.5-3.5 0 0 0-0.1-0.1-0.1 0 0-0.1 0-0.1 0.1-0.2 0.4-0.4 0.7-0.6 0.9-0.4 0.9-0.7 1.6-1 2.3-0.1 0.2-0.2 0.4-0.3 0.6q0 0.1 0 0.1-0.1 0.1-0.2 0.2c-0.5 0.3-1 0.7-1.4 1.1-0.9 0.9-1.8 1.8-2.8 2.7-0.4 0.3-0.7 0.7-1 1.3-0.3 1.1-0.9 1.9-1.5 2.5 0.1-0.4 0.3-0.8 0.3-1.2 0.1-0.2-0.1-0.2-0.2-0.1-0.2 0.2-0.4 0.6-0.5 0.8 0 0.4 0 0.6 0.1 0.7q-0.4 0.4-0.9 0.7c-0.4 0.3-0.8 0.7-1.1 1.2-0.1 0.4-0.3 0.7-0.5 1-0.2 0.4-0.5 0.8-1 0.8-0.4 0-0.6 0.3-0.8 0.6-0.6 1.8-1 3.8-1.4 5.6-0.2 0.9-0.5 1.8-0.9 2.5-0.8 1.6-1.5 3.4-1.8 5.4-0.1 0.4-0.1 0.9-0.1 1.4 0 0.1 0.1 0.3 0.2 0.5 0.1 0.2 0.5 0.4 0.6 0.3 0.2-0.2 0.4-0.4 0.4-0.6 0.2-0.5 0.3-1 0.7-1.2 0.6-0.2 0.8-0.8 0.9-1.5 0.1-1 0.4-1.8 1.1-2.2 0.3-0.2 0.4-0.7 0.6-1q0.5-0.8 0.9-1.6c0.2-0.3 0.5-0.5 0.6-0.9 0.1-0.6 0.3-0.9 0.7-1.2q0 0.1 0.2 0.2 0.1 0 0.2 0-0.1-0.1-0.2-0.3-0.1 0-0.1 0 0.1-0.1 0.2-0.1c0.5-0.4 1-0.7 1-1.5 0-0.1 0-0.1 0.1-0.1 0-0.1 0.1-0.1 0.2 0l-0.1 0.1c0 0.5 0 0.9 0.1 1.4 0.5 1.4 0.4 2.5-0.1 3.6-0.2 0.4-0.3 0.8-0.1 1.3 0.1 0.3 0.1 0.6 0.1 0.9 0.1 0.4 0.1 0.8-0.3 1-0.3 0.2-0.3 0.5-0.2 0.8 0.3 1 0.8 2.1 1.4 3.1-0.2-0.1-0.4-0.1-0.4 0 0.2 1 0.6 2.1 1.4 3.4q0.2 0.3 0.5 0.6 0.2 1.4 0.9 2.9-0.1 0-0.1 0c0 0.2 0.1 0.6 0.5 1q0 0.1 0.1 0.1 0 0.1 0.1 0.2c0.2 0.3 0.4 0.7 0.7 1 0.1 0.1 0.3 0.2 0.5 0.3 0.2 0.1 0.6 0 0.6-0.1 0-0.2 0.1-0.4 0-0.6-0.2-0.4-0.4-0.8-0.1-1.1 0.3-0.4 0.2-0.8-0.1-1.4q0.1 0.2 0.2 0.3c0.2 0.1 0.3 0.2 0.4 0.1 0 0 0-0.2-0.1-0.4-0.2-0.5-0.5-1-1.1-1.7q0-0.2 0.1-0.4c0.1-0.3 0-0.6-0.1-1l-0.2-1.5q0-0.1 0-0.2c0.9 1.1 1.8 2.1 2.5 3.3 0.2 0.3 0.7 0.4 0.7 0.2q0-0.2 0-0.4 0.1 0.1 0.2 0.1c0 0 0.2 0 0.2 0 0-0.1-0.1-0.1-0.3-0.2q-0.1 0-0.1 0-0.1-0.6-0.4-1.5c0.1-0.1 0.1-0.3-0.1-0.4q0.5 0.4 1 0.6c0.2 0.1 0.4 0.3 0.5 0.4q0.1 0.1 0.2 0.1l0.1 0.2h0.1q0 0 0-0.1 0 0 0 0c1.4 0.2 2.6 0.9 3.8 1.6 0.4 0.2 0.8 0.4 1.3 0.5q0.2 0.1 0.4 0.2 0 0.1 0.2 0.3c0.1 0.1 0.3 0.3 0.3 0.2 0.1 0 0.1-0.2 0-0.3q1 0.3 2 0.6c0.4 0.2 0.8 0.3 1.3 0.1 1.4-0.2 2.5 0 3.4 0.7 0.4 0.3 0.8 0.4 1.3 0.3 0.3 0 0.6 0 0.9 0 0.3 0 0.7 0.1 0.9 0.5 0.1 0.4 0.4 0.4 0.7 0.3 1.5-0.2 3.1-0.9 4.7-1.3q0.4-0.2 0.8-0.3 0 0.3 0 0.6c-0.2 0.2-0.3 0.3-0.4 0.4q0 0.1-0.1 0.2c0 0.1 0.3 0.4 0.6 0.4 0.2 0.1 0.4 0.1 0.5 0.1 0.4-0.2 0.4-0.5 0.4-0.8q0.1-0.5 0.1-1 0.2 0 0.3 0c1.4 0 3-0.2 4.7-0.8 0.3-0.1 0.7-0.4 1.1-0.6 0.1 0 0.2-0.2 0.3-0.4 0.1-0.2 0.2-0.6 0.1-0.7-0.2 0-0.4-0.1-0.6-0.1-0.4 0.1-0.9 0.2-1.1-0.1-0.4-0.4-0.9-0.3-1.5-0.1-0.8 0.4-1.5 0.4-2 0.1-0.3-0.2-0.7-0.1-1-0.1l-1.5-0.1c-0.3 0-0.5-0.1-0.8 0-0.6 0.2-1.1 0-1.5-0.3-0.4-0.2-0.7-0.5-1.4-0.1-0.1 0-0.1 0-0.1 0-0.1 0-0.1-0.2 0-0.4q0.2-0.2 0.4-0.5 0.1 0 0.2 0.1c0.1 0 0.2 0 0.3 0 0.2 0.1 0.4 0.1 0.5 0.1 0.1-0.1 0-0.2-0.1-0.3q-0.3-0.2-0.7-0.3 0.1-0.1 0.1-0.1c0-0.1 0-0.2 0-0.2q0 0 0 0c0.3-0.3 0.6-0.4 1-0.7q0.1-0.1 0.2-0.2c0.1 0.2 0.2 0.4 0.3 0.6 0.2 0.2 0.5 0.4 0.6 0.4 0.2 0 0.4-0.1 0.5-0.3 0.1-0.4 0.4-0.6 0.9-0.4 0.3 0.1 0.5-0.1 0.5-0.6 0-1 0.4-1.3 0.9-1.6q0.3-0.1 0.6-0.3 0.2-0.1 0.3-0.3 0.1 0 0.1 0c0.5 0 0.8-0.1 0.7-0.4-0.2-0.6 0-1.1 0.1-1.6q0.1 0.2 0.2 0.3 0.3 0.3 0.6 0.6c0.1 0 0.2 0 0.3 0 0.1-0.1 0.1-0.3-0.1-0.7-0.2-0.3-0.5-0.7-0.7-0.8q-0.1 0-0.2-0.1-0.1-0.2-0.1-0.5c0-0.1-0.1-0.2-0.2-0.2-0.2 0-0.4-0.1-0.5 0q0 0.1-0.1 0.2-0.2-0.4-0.3-0.8 0 0 0 0 0.1 0 0.1-0.1c0.5-0.4 0.9-0.5 1.3-0.3q0.1 0 0.3 0 0.2 0.1 0.3 0.1c0.2 0.1 0.5 0.1 0.6 0q0.3-0.1 0.2-0.4c-0.1-0.3 0-0.6 0.5-0.7 0.3-0.1 0.3-0.3 0-0.6q-0.1-0.2-0.2-0.4 0.3-0.7 0.6-1.4 0.1 0 0.2 0c0.5 0.3 1 0.4 1.1-0.2 0.2-0.6 0.5-0.7 0.9-0.8q0.1-0.1 0.2-0.1c-0.4 0.5-0.7 1.2-1.2 2.2-0.3 0.8-0.7 1.8-1.2 2.9-0.1-0.2-0.3-0.3-0.4-0.3q-0.1-0.1-0.2 0.1c-0.1 0.2 0 0.6 0.3 1q-0.3 0.6-0.5 1.2c-0.1 0.3 0 0.6 0.1 0.5q0.5-0.4 0.9-1 0.2 0.1 0.3 0.2c0.1-0.1 0.2-0.3 0.1-0.6q0.5-0.6 0.9-1.4 0 0 0.1-0.1 0.1 0.2 0.2 0.4c0.1 0.1 0.2 0.1 0.2 0.1 0.1-0.2 0-0.6-0.3-0.8q0.2-0.4 0.2-0.7c0.1-0.3 0.1-0.6 0.1-0.8zm-5.5 3q-0.2 0.4-0.4 0.7-0.2 0.7-0.3 1.2-0.5 0.2-1 0.3c-0.1 0-0.3-0.2-0.4-0.3-0.2-0.2-0.3-0.6-0.4-0.8-0.1-0.4 0-0.6 0.1-0.7 0.3-0.2 0.7-0.3 1-0.6 0.3-0.3 0.8-0.2 1.4 0.2zm-2.9 3.3q-0.1 0.1-0.2 0.1c-0.3 0.1-0.6-0.1-0.9-0.4-0.3-0.5-0.4-0.9-0.4-1.3q0-0.1 0-0.2 0 0 0 0 0.4 0 0.4-0.2c0.4 0.2 0.9 0.8 1.1 1.3 0.1 0.2 0.2 0.4 0.2 0.5 0 0.1-0.1 0.1-0.2 0.2zm-23.8 3.4q0 0 0 0 0.1 0 0.1 0 0 0-0.1 0zm21.8-26.2l0.1 0.2-0.2-0.1zm7.7 11.1c0 0.2-0.3 0.1-0.4-0.1q-0.1-0.1-0.2-0.2-0.2-0.5-0.3-0.9 0.2-0.4 0.3-0.8 0-0.1 0-0.1c0.5 0.8 0.7 1.6 0.6 2.1zm-23.9-16.4q-0.2 0.4-0.3 0.7-0.1 0-0.1-0.1c-0.1-0.1-0.1-0.3-0.1-0.4 0-0.1 0.1-0.2 0.2-0.3q0.1 0 0.3 0 0 0 0 0.1zm22.5 13.8c0.2-0.1 0.1-0.3-0.1-0.5q0 0 0 0c-0.1-0.1 0-0.2 0-0.2 0.1 0.1 0.3 0.1 0.4 0.2q0.2 0.4 0.4 0.7-0.3 0.2-0.5 0.4-0.1-0.3-0.2-0.6zm0.5 5.3c-0.3-0.4-0.5-0.8-0.7-1.3-0.1-0.2 0-0.3 0-0.4 0 0 0.1 0.1 0.2 0.1q0.5 0.6 0.9 1.2-0.1 0-0.1 0-0.2 0.2-0.3 0.4zm-1.1 1.8q-0.1-0.1-0.1-0.3-0.1-0.1-0.1-0.2 0-0.1 0-0.1 0 0 0 0 0.1 0 0.3 0.1 0.1 0.1 0.2 0.1-0.2 0.2-0.3 0.4zm-10.3 9.6q0.1-0.5 0.3-0.9c0.3 0.2 0.6 0.2 0.7 0.1q-0.1 0.2-0.2 0.3-0.4 0.7-0.8 1.4c-0.1 0-0.1 0.1-0.2 0.1q0-0.1 0-0.2c0-0.2 0.1-0.5 0.2-0.8zm0.7-29.6q0-0.3 0.1-0.3 0 0.2-0.1 0.3zm-1.8 27.4q0 0 0.1 0h-0.1zm2.2 0.3q0.3 0.2 0.5 0.3-0.3 0.4-0.6 0.9 0.1-0.2 0.1-0.4-0.1-0.5 0-0.8zm-6.1 3.6v0.2-0.2q0 0 0 0zm6.9-0.6q-0.5 0.4-0.9 0.8c-0.2 0-0.3-0.2-0.2-0.6 0.1-0.5 0.3-1 0.6-1.4q0.7-1 1.1-0.8c0.2 0.2 0.2 0.7-0.1 1.3q-0.1 0.3-0.2 0.5-0.1 0.1-0.3 0.2zm8.3-24.1h0.2v0.2zm-6.4 22.2q-0.1-0.1-0.2-0.3 0-0.1-0.1-0.3c0-0.2 0-0.4-0.1-0.6-0.1-0.2-0.2-0.4-0.4-0.4q-0.1 0-0.2 0 0.1 0 0.1 0 0.3-0.1 0.6-0.1c0.1-0.1 0.2 0 0.4 0.1 0.2 0.1 0.5 0.5 0.6 0.8-0.2 0.3-0.4 0.6-0.6 0.8q-0.1 0-0.1 0zm10.1-13.1q-0.3-0.4-0.5-0.7 0 0 0 0c0.4 0.1 0.9 0.2 1 0.1q0 0 0 0 0 0.3 0.1 0.6c0 0.3-0.4 0.3-0.6 0z"/></g><path class="a" d="m262.7 219.4c-0.2-0.1-0.4-0.2-0.7 0.1-0.6 0.7-1.2 1.4-1.8 2.2q-0.2-0.4-0.4-0.8c0-0.1-0.2-0.2-0.3-0.3-0.1 0-0.1 0-0.1 0.1 0 0.4 0.2 0.8 0.5 1.3q0 0 0 0-0.3 0.4-0.6 0.9c-0.4 0.4-0.5 1.3-0.3 1.4 0.1 0.1 0.3 0.1 0.5-0.1q0.4-0.4 0.7-0.9c0.7-1.1 1.4-1.9 2.1-2.7 0.1-0.1 0.2-0.3 0.3-0.5 0.1-0.2 0.1-0.6 0.1-0.7z"/><path class="a" d="m257 203.8c-0.1 0-0.2 0.1-0.2 0.2-0.1 0.2-0.2 0.4-0.1 0.5 0.4 0.6 1.1 0.7 1.8 0.8 0.3 0.1 0.7 0.2 1 0.3 0.2 0.2 0.3 0.4 0.4 0.5q0.1 0 0.2 0.1c0.1 0.1 0.4-0.2 0.5-0.5 0-0.2 0.1-0.4 0.1-0.5-0.1-0.5-0.5-0.6-0.8-0.6q-0.9-0.3-1.9-0.6c-0.3-0.1-0.7-0.1-1-0.2z"/><path class="a" d="m263.8 226.5c-0.1 0-0.2 0.3-0.2 0.4-0.1 0.2-0.1 0.3-0.1 0.5 0.3 0.1 0.6 0.2 1.1-0.4 0.1-0.1 0.1-0.2 0.2-0.3 0-0.2 0.1-0.4 0-0.5q-0.3-0.3-1 0.3z"/><path class="a" d="m225.6 197.8c0.2-0.3 0.2-0.5 0.3-0.8 0 0-0.1 0-0.1 0q-0.2 0.1-0.6 0.8c-0.2 0.3-0.3 0.5-0.2 0.7q0 0.1 0 0.1c0.2-0.1 0.4-0.4 0.6-0.8z"/><path class="a" d="m251.1 229.6c-0.3 0.3-0.4 0.8-0.3 1 0 0.2 0.3 0.1 0.5-0.3 0.2-0.2 0.3-0.6 0.2-0.8 0-0.2-0.2-0.2-0.4 0.1z"/><path class="a" d="m260.7 218.2c-0.3 0.3-0.6 0.8-0.7 1.3-0.1 0.1 0 0.2 0.1 0.3 0.1-0.1 0.4-0.4 0.6-0.9 0.1-0.3 0.2-0.6 0.1-0.7q-0.1 0-0.1 0z"/><path class="a" d="m261.5 223.8c-0.2 0-0.5 0.3-0.6 0.7-0.2 0.3-0.1 0.6 0 0.6 0.2 0 0.5-0.4 0.6-0.8 0.1-0.3 0.1-0.5 0-0.5z"/><path class="a" d="m218.3 204.4c0.4-0.5 0.5-1 0.4-1.2-0.1 0-0.2 0.1-0.3 0.2q-0.4 0.6-0.5 1.1c0 0.2 0.3 0.1 0.4-0.1z"/><path class="a" d="m234.4 193.8c0.3-0.2 0.5-0.6 0.8-1.1 0-0.2 0-0.4 0-0.4 0-0.1-0.2 0-0.3 0.1q-0.3 0.5-0.6 1c0 0.1 0 0.3 0 0.4 0 0.1 0.1 0.1 0.1 0z"/><path class="a" d="m263.4 223.3c0-0.1-0.1 0-0.2 0.3q-0.3 0.7-0.6 1.4c-0.1 0-0.1 0.2-0.1 0.2 0.1-0.1 0.2-0.1 0.3-0.3q0.2-0.2 0.4-0.6 0.1-0.3 0.2-0.8c0.1 0 0.1-0.1 0-0.2z"/><path class="a" d="m255.5 203.1c-0.1 0-0.2 0.2-0.3 0.2 0 0.2-0.1 0.5 0 0.5 0 0.1 0.2 0 0.3 0.1q0.1-0.2 0.1-0.3c0.1-0.1 0.1-0.2 0.1-0.3-0.1-0.1-0.1-0.2-0.2-0.2z"/><path class="a" d="m255.2 209.4c-0.1 0.3-0.2 0.6 0 0.6q0.2-0.1 0.4-0.6c0.1-0.1 0.1-0.4 0.1-0.4-0.1-0.1-0.3 0.1-0.5 0.4z"/><path class="a" d="m256.3 229.4c-0.1 0.3-0.1 0.5 0 0.4 0.1 0 0.2-0.2 0.3-0.4 0.1-0.2 0.2-0.4 0.1-0.3-0.1 0-0.3 0.2-0.4 0.3z"/><path class="a" d="m219.5 200.9c0.1 0 0.1-0.1 0.1-0.2q0-0.1-0.1 0c-0.1 0-0.3 0.1-0.4 0.4-0.1 0.1-0.1 0.2 0 0.2q0.2-0.2 0.4-0.4z"/><path class="a" d="m259.8 229.5c0-0.1 0-0.2 0-0.3q0-0.2-0.2 0.2c0 0-0.1 0.2-0.1 0.2q0.1 0.2 0.3-0.1z"/><path class="a" d="m253.1 229.3c0 0 0 0.1 0.1 0.1 0 0 0.1-0.1 0.1-0.2 0-0.1 0.1-0.2 0.1-0.2-0.1-0.1-0.2 0-0.3 0.3z"/><path class="a" d="m260 232.2c-0.2 0.1-0.3 0.1-0.5 0.5 0 0 0 0.2 0 0.1q0.2-0.1 0.4-0.2c0.1-0.1 0.1-0.2 0.1-0.2q0-0.1 0-0.2z"/><path class="a" d="m220.2 193.2q0.5-0.6 1-1.1-0.5 0.4-0.9 0.8c0 0.1-0.1 0.2-0.2 0.2 0 0.1 0.1 0.1 0.1 0.1z"/><path class="a" d="m261.5 206.6q0.1 0.1 0.2 0.1c0-0.1 0.1-0.2 0.1-0.2q-0.1-0.1-0.2-0.2c0 0.1-0.1 0.3-0.1 0.3z"/><path class="a" d="m263.3 221.7c0 0 0-0.1 0.1-0.2 0 0 0-0.1 0-0.2 0 0-0.1 0-0.1 0.1q-0.2 0.3 0 0.3z"/><g clip-path="url(#cp3)"><path class="a" d="m228.6 192l-0.1 0.2 0.1-0.1z"/></g><path class="a" d="m224.7 195.1l-0.1 0.2 0.1-0.1z"/><path class="a" d="m261.6 214.5l-0.1 0.1v0.1z"/><path class="a" d="m263 215.5v0.2l0.1-0.2z"/><path class="a" d="m220.4 197l-0.2 0.2h0.1z"/><g clip-path="url(#cp4)"><path class="a" d="m222.1 191.9c0 0 0 0-0.1 0q0 0 0 0z"/></g><g clip-path="url(#cp5)"><path class="a" d="m222 191.9c0.3-0.6 0.3-0.6-0.1-0.3q-0.4 0.2-0.7 0.5l0.3 0.1c0.1 0 0.3-0.1 0.5-0.3z"/></g><path class="a" d="m221.2 192.1z"/><g clip-path="url(#cp6)"><path class="a" d="m222.1 192h-0.1q0.1 0 0.1 0z"/></g><g clip-path="url(#cp7)"><path class="a" d="m222.1 192v-0.1h-0.1q0 0 0.1 0.1z"/></g><g clip-path="url(#cp8)"><path class="a" d="m230.8 242.4c-0.2 0-0.3 0-0.5 0 0 0.3 0 0.6 0.6 1 0.1 0.1 0.2 0.1 0.3 0.1 0.2 0 0.4 0.1 0.5 0 0.1-0.2 0-0.6-0.4-0.9-0.1-0.1-0.4-0.2-0.5-0.2z"/></g><path class="a" d="m237.9 238.1q0.1-0.1 0.1-0.1c0-0.1 0-0.2-0.1-0.3-0.1-0.2-0.3-0.3-0.4-0.3-0.7 0.2-1.2 0.8-1.6 1.4q-1.1-0.6-2.2-1.2c-0.4-0.2-1.2-0.3-1.4-0.1 0 0.2 0 0.3 0.3 0.5 0.3 0.2 0.6 0.4 0.9 0.6q1 0.4 1.8 0.9-0.1 0.1-0.2 0.2c-0.3 0.2-0.4 0.2-0.6 0.3q-0.1 0.1-0.2 0.2c-0.1 0 0 0.4 0.2 0.6 0.1 0.1 0.3 0.3 0.4 0.3 0.5 0.1 0.7-0.2 0.9-0.4q0.3-0.3 0.5-0.6 0.1 0.1 0.1 0.1c0.1 0.1 0.4 0.2 0.6 0.3 0.2 0 0.6 0 0.6-0.1 0.2-0.1 0.1-0.3-0.2-0.6q-0.3-0.2-0.5-0.3 0.2-0.3 0.4-0.5 0.2-0.3 0.4-0.6 0 0 0 0c0.3 0.1 0.6 0.1 0.7 0q0 0 0-0.1-0.2-0.1-0.5-0.2z"/><path class="a" d="m233.3 239.9c0-0.2-0.4-0.4-0.8-0.5-0.3-0.1-0.5 0-0.5 0.1 0 0.2 0.4 0.4 0.8 0.5 0.3 0.1 0.5 0 0.5-0.1z"/><path class="a" d="m245.3 195.3c0.5 0.3 1 0.4 1.2 0.2-0.1-0.1-0.2-0.2-0.3-0.3q-0.6-0.3-1.1-0.2c-0.2 0-0.1 0.2 0.1 0.3z"/><path class="a" d="m233.9 241.5q-0.8-0.2-1.5-0.4c0 0-0.2 0-0.2 0 0.1 0.1 0.2 0.2 0.3 0.3q0.2 0.1 0.5 0.2 0 0 0 0c0.1 0 0.2 0.2 0.2 0.2q0.1-0.1 0.2-0.1 0.2 0 0.5 0.1c0.1 0 0.2 0 0.2-0.1 0.1 0 0-0.1-0.2-0.2z"/><path class="a" d="m250.9 231.4c0 0 0 0.2 0 0.3q0.2 0.1 0.3 0.1c0.1 0 0.2 0 0.2 0 0.1 0 0.2-0.1 0.2-0.2 0 0-0.2-0.1-0.2-0.2-0.2 0-0.4-0.1-0.5 0z"/><path class="a" d="m227.5 235.9c-0.1-0.1-0.3-0.2-0.4-0.2-0.2-0.1-0.4-0.1-0.4 0 0.1 0.1 0.3 0.2 0.4 0.2 0.3 0.1 0.5 0.1 0.4 0z"/><path class="a" d="m257.5 213c0.1 0 0.2-0.1 0.2-0.1-0.1-0.1-0.5-0.4-0.9-0.5-0.1 0-0.1 0.1-0.2 0.1 0.1 0.1 0.5 0.4 0.9 0.5z"/><path class="a" d="m241.5 236.5c0.1 0.1 0.2 0.2 0.3 0.3 0.1 0 0.3 0 0.4 0l-0.3-0.3z"/><path class="a" d="m248.9 196q0.1 0 0.1-0.1c-0.1-0.1-0.3-0.2-0.6-0.4 0 0-0.1 0-0.1 0.1q0.2 0.2 0.4 0.4c0.1 0 0.2 0 0.2 0z"/><path class="a" d="m227.7 238.8c0 0-0.2 0-0.2 0q-0.2 0.1 0.2 0.2c0.1 0 0.2 0.1 0.2 0.1q0.2-0.1-0.2-0.3z"/><path class="a" d="m224.6 239.3c0 0-0.2 0-0.1 0q0.1 0.2 0.3 0.4c0 0 0.2 0 0.2 0q0.1 0 0.1-0.1c0-0.1-0.1-0.2-0.5-0.3z"/><path class="a" d="m257.5 195.3q-0.5-0.4-1-0.8c0 0-0.2-0.1-0.2-0.1-0.1 0 0 0.1 0 0.1q0.6 0.4 1.2 0.8z"/><path class="a" d="m249.3 237.9c0.1 0.1 0.3 0.1 0.3 0.1q0.1-0.1 0.1-0.2c-0.1 0-0.3-0.1-0.3 0q0 0-0.1 0.1z"/><path class="a" d="m235.9 241.3q-0.3-0.1-0.3 0c0 0.1 0.1 0.1 0.2 0.1 0.1 0 0.2 0.1 0.2 0 0 0 0 0-0.1-0.1z"/><path class="a" d="m241.9 238.7h0.2-0.2z"/><path class="a" d="m241.2 240.2l0.2 0.1v-0.1z"/><path class="a" d="m252.4 195.9v0.1h0.2z"/><path class="a" d="m257.9 196.3c-0.1 0 0 0-0.1 0q0 0 0 0z"/><path class="a" d="m257.8 196.3c0.6 0 0.7-0.1 0.3-0.4q-0.3-0.3-0.6-0.6v0.4c-0.1 0.2 0.1 0.4 0.3 0.6z"/><path class="a" d="m257.5 195.3z"/><path class="a" d="m257.8 196.3l-0.1-0.1q0.1 0.1 0.1 0.1z"/><path class="a" d="m257.8 196.3h0.1c0 0-0.1 0-0.1 0q0 0 0 0z"/><path class="a" d="m257 198.9v0.1z"/><path class="a" d="m255.2 201.5c0.5 0 0.9 0 1.1-0.6 0.1-0.4 0.3-0.8 0.5-1.1 0.1-0.2 0.1-0.6 0.2-0.9q-0.1 0-0.2-0.1c-1.9-1.9-2-1.9-2.6-0.6-0.1 0.3-0.3 0.6-0.4 0.9-0.1 0.2 0 0.8 0.3 1.3 0.3 0.6 0.8 1.1 1.1 1.1z"/><path class="a" d="m219.4 232.9c-0.2-0.5-0.9-1-1.1-0.8-0.2 0.1-0.3 0.3-0.2 0.6 0.1 0.3 0.3 0.7 0.5 1 0.6 1.1 1.1 2.1 1.4 3.1 0.1 0.2 0.2 0.4 0.3 0.6 0.2 0.2 0.5 0.4 0.6 0.3 0.3-0.1 0.4-0.3 0.3-0.7-0.5-1.3-1.1-2.7-1.8-4.1z"/><path class="a" d="m262 213.7c0 0 0-0.1 0-0.2-0.2-0.4-0.4-0.8-0.5-1-0.5-0.8-0.9-1.5-1.3-2.1-0.1-0.2-0.3-0.4-0.4-0.5-0.1-0.1-0.3-0.2-0.3-0.2-0.1 0.1 0 0.3 0 0.5 0.6 1.3 1.4 2.5 2.3 3.5q0.1 0 0.2 0z"/><path class="a" d="m213.5 236c-0.1-0.1-0.3-0.1-0.5-0.2-0.2 0.3-0.4 0.6-0.1 1.3 0.1 0.1 0.1 0.2 0.2 0.3 0.1 0.1 0.3 0.2 0.4 0.2 0.3-0.2 0.4-0.5 0.3-1.2 0-0.1-0.2-0.3-0.3-0.4z"/><path class="a" d="m229.1 234.8c-0.1-0.1-0.3-0.1-0.3 0 0 0.5 0.5 1.3 1.1 1.7 0 0 0.1 0 0.2 0.1 0-0.1 0.1-0.2 0-0.3-0.2-0.6-0.5-1.1-1-1.5z"/><path class="a" d="m261.6 209.1c0 0.2 0.1 0.6 0.3 1 0.2 0.2 0.4 0.4 0.6 0.5 0 0.1 0 0 0.1 0q0.1-0.3-0.3-1c-0.2-0.3-0.4-0.5-0.5-0.5q-0.1-0.1-0.2 0z"/><path class="a" d="m216.8 221c-0.2 0.1-0.2 0.3 0 0.7 0.2 0.3 0.4 0.5 0.6 0.5 0.3 0.1 0.4-0.1 0.2-0.5-0.1-0.3-0.5-0.7-0.8-0.7z"/><path class="a" d="m216.6 233.8c-0.1 0.2 0 0.6 0.3 0.9 0.3 0.2 0.5 0.3 0.6 0.2 0.1-0.2-0.1-0.6-0.4-0.9-0.2-0.3-0.5-0.3-0.5-0.2z"/><path class="a" d="m261.6 200.7c0-0.1 0-0.3-0.1-0.4q-0.2-0.7-0.7-1c-0.2-0.1-0.2 0.2-0.1 0.5 0.2 0.5 0.6 0.9 0.9 0.9z"/><path class="a" d="m251.6 195.3c0.2-0.1 0.4-0.2 0.5-0.2q0.2-0.1 0-0.4c-0.1-0.1-0.2-0.2-0.2-0.2-0.3-0.1-0.6-0.1-0.6 0.2-0.1 0 0 0.1 0 0.2 0.1 0.2 0.2 0.4 0.3 0.4z"/><path class="a" d="m257 198.9v0.1h0.1c-0.1-0.1-0.1-0.1-0.1-0.1z"/><path class="a" d="m258.1 200.2c0.2 0.1 0.3 0 0.3-0.2-0.1-0.3-0.3-0.7-0.4-0.8-0.4-0.3-0.7-0.3-0.9-0.2 0.3 0.4 0.6 0.9 1 1.2z"/><path class="a" d="m215.8 235.6c0 0-0.1-0.1-0.1-0.1 0 0.1 0 0.3 0 0.4 0.1 0.2 0.3 0.3 0.4 0.6q0.3 0.2 0.6 0.5c0.1 0.1 0.2 0.1 0.2 0.1 0.1 0 0.1-0.1-0.1-0.3q-0.4-0.6-1-1.2z"/><path class="a" d="m239 236.2q-0.2 0.1-0.2 0.2-0.1-0.1-0.2-0.1c-0.5-0.4-1.2-0.6-2.5-1-1.3-0.4-3.1-0.8-4.9-1.3-0.3-0.1-0.6 0.1-0.4 0.2 0.7 0.6 1.6 1.2 2.9 1.8 0.4 0.1 0.8 0.2 1.2 0.2 0.2 0 0.5 0 0.7 0 0.5-0.1 1.1 0 1.9 0.1q-0.1 0.1-0.2 0.2c0 0.1 0 0.2 0 0.2q0.1 0.1 0.2-0.2 0.1-0.1 0.1-0.1 0.2 0 0.4 0.1c0.2 0.1 0.4 0.1 0.6 0.1q0.1 0 0.2 0 0.1 0.1 0.1 0.2c0.1 0 0.2 0.1 0.2 0.1 0.1 0 0.2 0 0.2-0.1 0.1 0 0-0.2 0-0.3-0.1-0.1-0.3-0.3-0.3-0.3z"/><path class="a" d="m214.5 227.3c0 0.1 0.2 0.3 0.2 0.4 0.2 0.2 0.4 0.3 0.4 0.2 0-0.1-0.1-0.3-0.2-0.5-0.2-0.2-0.3-0.3-0.4-0.1z"/><path class="a" d="m255.7 204.7c0.1 0.1 0.1 0.2 0.2 0.2 0 0.1 0.1 0.2 0.1 0.1 0.1 0 0.2 0 0.2-0.2 0-0.1-0.1-0.3-0.1-0.4-0.1-0.1-0.3-0.1-0.3-0.1-0.1 0.1-0.1 0.3-0.1 0.4z"/><path class="a" d="m227.4 236.2l-0.3-0.2c0 0.1 0 0.3 0.1 0.4 0.1 0.1 0.2 0.1 0.3 0.2z"/><path class="a" d="m263.3 202.6q0.1 0 0.1 0c0.1-0.2 0.1-0.4-0.1-0.7-0.1-0.1-0.2-0.1-0.2-0.1q0 0.3 0.1 0.6c0 0.1 0.1 0.2 0.1 0.2z"/><path class="a" d="m213.2 230.9c0 0-0.1-0.1-0.2-0.1q-0.2 0 0.1 0.3c0 0 0.1 0.1 0.2 0.1q0.2 0-0.1-0.3z"/><path class="a" d="m216.8 224c-0.1 0-0.1 0-0.1 0.1-0.1 0 0 0.1 0 0.2 0.1 0 0.2 0.1 0.2 0.1 0.1-0.1 0.1-0.2-0.1-0.4z"/><g clip-path="url(#cp9)"><path class="a" d="m210 229.7q0 0.2 0 0.5c0.1 0 0.2 0.1 0.2 0.2q0.1 0 0.1-0.1c0.1-0.1 0.1-0.3-0.1-0.6-0.1 0-0.2-0.1-0.2 0z"/></g><g clip-path="url(#cp10)"><path class="a" d="m270.9 205.7c0-0.1-0.1 0-0.1 0q0.3 0.8 0.5 1.4v0.1q-0.1-0.7-0.3-1.3c0-0.1-0.1-0.2-0.1-0.2z"/></g><path class="a" d="m218.5 237.5c0 0 0.1 0.1 0.1 0.2 0.1 0 0.1 0.1 0.2 0.1 0 0 0-0.1 0-0.1q-0.2-0.4-0.3-0.2z"/><path class="a" d="m247.6 198.5c0.1-0.1 0.1-0.3 0.1-0.4-0.2 0-0.3-0.1-0.4-0.1 0 0 0 0.1 0 0.2 0.1 0.2 0.2 0.3 0.3 0.3z"/><path class="a" d="m219.4 204.8q0-0.2 0-0.4c-0.1 0-0.1-0.1-0.2-0.1q-0.1 0.1 0.1 0.4c0 0 0.1 0.1 0.1 0.1z"/><path class="a" d="m265.1 215.6l0.1 0.1-0.1-0.2z"/><path class="a" d="m265.1 210.2h0.1l-0.1-0.1z"/><path class="a" d="m225.9 238.3l0.1 0.1-0.1-0.2z"/><path class="a" d="m224.3 239.6l0.1-0.1-0.2-0.1z"/><path class="a" d="m253.9 194.8c0-0.1 0-0.2 0-0.2-0.1-0.1-0.2-0.1-0.2-0.2 0 0.1 0 0.2 0 0.2q0.1 0.1 0.2 0.2z"/><path class="a" d="m266.3 204.6l0.1 0.2v-0.2z"/><g clip-path="url(#cp11)"><path class="a" d="m270.8 208.3c0-0.1 0-0.1 0-0.1q0 0 0 0z"/></g><g clip-path="url(#cp12)"><path class="a" d="m271.3 207.2l-0.4 0.3c-0.1 0.1-0.1 0.4-0.1 0.7 0.5 0.4 0.6 0.4 0.6-0.1q-0.1-0.5-0.1-0.9z"/></g><g clip-path="url(#cp13)"><path class="a" d="m271.3 207.1v0.1z"/></g><g clip-path="url(#cp14)"><path class="a" d="m270.8 208.2v0.1c0 0 0-0.1 0-0.1q0 0 0 0z"/><path class="a" d="m270.8 208.2l-0.1-0.1q0 0.1 0.1 0.1z"/></g><path class="b" d="m144.3 123.7q1-0.3 2 0.1 1 0.5 1.4 1.5 0.4 1.1-0.2 2.1-0.5 1-1.5 1.3l-31.6 10.8 5.3 30.9 29-9.9q1-0.4 2 0.1 1 0.5 1.4 1.5 0.3 1-0.2 2.1-0.5 1-1.5 1.4l-29.7 10.1 4.8 27.7 30.7-10.5q1-0.3 2 0.2 1.1 0.5 1.4 1.5 0.4 1-0.1 2-0.5 1-1.5 1.4l-33.8 11.5q-1.1 0.4-2.2-0.2-1-0.7-1.2-1.9l-12.1-69.2q-0.3-2.2 1.9-2.9z"/><path class="b" d="m205.5 133.3q3.8 18.1-31.6 27.3l28 25.5q0.8 0.8 0.8 1.9 0 1.1-0.7 2-0.7 0.8-1.8 0.8-1.2 0.1-2-0.7l-27.5-25.1-1.3 26.9q-0.2 2.3-2.5 2.6-0.2 0-0.4 0-1.1-0.1-1.9-0.9-0.8-0.8-0.7-1.9l3.8-70.3q0.1-2.2 2.3-2.5 0.3 0 2.7-0.2 2.5-0.3 6.1-0.2 3.7 0 7.9 0.6 4.2 0.6 8.1 2.2 3.9 1.6 6.8 4.5 2.8 2.8 3.9 7.5zm-34.2 22.4q5.6-1.4 11.2-3.4 5.5-1.9 9.8-4.6 4.3-2.6 6.5-5.9 2.2-3.2 1.4-7.4-0.8-3.4-3.2-5.4-2.3-2.1-5.6-3.3-3.3-1.1-6.8-1.5-3.5-0.3-6.6-0.3-3.1 0-5 0.1z"/><path class="b" d="m266.3 120.6q1.2 0.3 1.7 1.3 0.5 1 0.2 2.1l-19.1 68.2q-0.6 2.1-2.6 2-2.2-0.1-2.6-2.1l-13.5-62-16.8 57.9q-0.7 2.2-2.9 2-0.2-0.1-0.4-0.2-1.2-0.2-1.7-1.2-0.5-1-0.2-2.2l19.7-68.2q0.6-2 2.7-1.9 2.1 0.1 2.6 2.2l13.5 61.7 16-57.7q0.4-1.1 1.4-1.6 0.9-0.5 2-0.3z"/><path class="b" d="m310.2 136.8l-17.5 68.2q-0.3 1-1.2 1.6-1 0.6-2 0.3-1.1-0.4-1.7-1.3-0.5-0.9-0.2-2l7.3-28.8-14.6-5-22.6 24.3q-1.1 1.3-2.8 0.7-0.6-0.2-0.9-0.5-0.9-0.8-0.9-1.9 0-1.1 0.7-1.9l51.9-56.1q1.4-1.6 3.2-0.7 1.8 1 1.3 3.1zm-26 28.7l12.1 4.2 6.2-23.9z"/><path class="b" d="m174 239.2q1.6 5.8 0.5 12.2-1 6.5-3.6 12.6-2.7 6-6.2 10.9-3.6 4.9-7.2 7.5-5.9 4.1-12.8 6.5-6.9 2.4-13.7 2.8-6.8 0.5-12.6-1.3-1-0.3-2.1-0.8-1-0.4-1.5-1.5-0.4-1.1 0.1-2.2l31.4-63.7q0.9-2 2.9-1.5 0.3 0.1 2.5 0.7 2.3 0.6 5.5 1.9 3.3 1.3 6.7 3.5 3.5 2.1 6.2 5.2 2.7 3.1 3.9 7.2zm-19.7 38.8q3.2-2.1 6.3-6.5 3-4.3 5.4-9.7 2.3-5.3 3.3-10.9 0.9-5.6-0.5-10.3-0.8-3.2-3.1-5.6-2.4-2.4-5.4-4.1-2.9-1.8-5.7-2.9-2.7-1.1-4.5-1.6l-29.1 59.2q5 1.3 10.8 0.8 5.8-0.5 11.6-2.6 5.9-2.1 10.9-5.8z"/><path class="b" d="m172.3 301.2q-0.6 2.2-3 1.8-0.2 0-0.4 0-1-0.4-1.6-1.4-0.5-1-0.2-2.1l21-67.3q0.4-1.1 1.4-1.6 1-0.5 2.1-0.1 1.1 0.2 1.6 1.2 0.5 1 0.1 2.2z"/><path class="b" d="m251.8 229.3q2.3 0.6 2.1 2.9l-6.9 70.5q-0.1 1-1 1.7-0.9 0.7-2 0.7-1.1-0.2-1.8-1-0.8-0.9-0.6-2l5.2-54-25.1 55.8q-0.8 1.8-2.8 1.7-1.8-0.2-2.3-2l-15.9-55.1-6.8 57.3q-0.2 2.3-2.4 2.4-0.3 0-0.6-0.1-1.1-0.1-1.8-1-0.7-0.9-0.5-2l8.2-70.6q0.3-2.2 2.5-2.4 0.9 0 1.7 0.5 0.9 0.6 1.2 1.5l17.6 60.9 28.8-64.1q1-2.1 3.2-1.6z"/><path class="b" d="m271.8 222.3l27.6 64.7q0.4 1 0 2.1-0.3 1-1.4 1.4-1.1 0.4-2.1 0-0.9-0.4-1.4-1.4l-11.7-27.4-14.7 4.9-3.1 33.1q-0.1 1.7-1.8 2.3-0.5 0.1-1 0-1.2 0-1.8-0.9-0.7-0.9-0.6-1.9l7-76.2q0.1-2 2.1-2.4 2.1-0.3 2.9 1.7zm-3.2 38.6l12.2-4.1-9.7-22.7z"/><g clip-path="url(#cp15)"><g clip-path="url(#cp16)"><g clip-path="url(#cp17)"><path fill-rule="evenodd" class="b" d="m69.7 143.4c1.5-0.3 2.4-0.2 3.3 0.4 6.3 4.2 12.7 8.4 18.3 13.7 1.2 1.2 2.1 2.7 2.9 4.1 0.4 0.9 1 1.6 1.9 2.1 0.4 0.3 0.8 0.7 0.4 1.2-0.3 0.5-0.7 0.2-1.1 0.1-10.1-2.9-17.6-10.2-26.1-15.8-1.4-0.9-1.9-2.3-1.6-3.9 0.3-1.4 1.3-1.8 2-1.9z"/></g></g></g><g clip-path="url(#cp18)"><g clip-path="url(#cp19)"><g clip-path="url(#cp20)"><path fill-rule="evenodd" class="b" d="m64.2 211c4.6-0.9 9.3-1.5 14-2.1 2.9-0.4 5.6 0 8.1 1.4 0.4 0.2 1.2 0.3 1 1-0.2 0.8-0.9 0.3-1.3 0.2q-1.1-0.2-1.9 0.3c-2.9 1.6-6.1 2.2-9.3 2.8-7.8 1.3-15.6 2.6-23.4 3.3-1.5 0.2-2.9 0-4.1-1-1.3-1.2-1.1-2.1 0.6-2.8 0.6-0.2 1.2-0.3 1.9-0.5 4.7-1.1 9.6-1.8 14.4-2.6z"/></g></g></g><g clip-path="url(#cp21)"><g clip-path="url(#cp22)"><g clip-path="url(#cp23)"><path fill-rule="evenodd" class="b" d="m84.4 274.6c-1.5 0.2-2.4-0.1-2.9-1.3-0.4-1.1 0.2-1.8 1-2.5 2.5-2.1 4.7-4.7 7-7.2 4.6-5 9.5-9.7 15.5-13 0.4-0.2 0.8-0.7 1.3-0.2 0.3 0.4 0 0.7-0.2 0.9-1.8 1.4-2.7 3.5-4.1 5.3-4.5 5.9-9.7 11.1-14.9 16.4-0.8 0.8-1.7 1.5-2.7 1.6z"/></g></g></g><g clip-path="url(#cp24)"><g clip-path="url(#cp25)"><g clip-path="url(#cp26)"><path fill-rule="evenodd" class="b" d="m83.6 242.8c-0.7 0.2-1.5-0.1-2-0.8-0.4-0.5-0.6-1.3 0-1.8 2.1-2 3.3-4.9 6-6.3 0.5-0.2 0.8-0.7 1.3-0.4 0.6 0.4 0.2 0.9 0.2 1.3-0.3 2.7-1.5 5-3.4 6.9-0.5 0.5-1.2 1-2.1 1.1z"/></g></g></g><g clip-path="url(#cp27)"><g clip-path="url(#cp28)"><g clip-path="url(#cp29)"><path fill-rule="evenodd" class="b" d="m87.1 182.9c-2-0.4-3.5-1.5-5.2-2.5-1.1-0.6-2.1-1.2-3.1-1.9-0.4-0.2-0.9-0.5-0.5-1.1 0.3-0.5 0.7-0.2 1.1-0.1 3.1 1.1 5.4 3.3 7.7 5.6z"/></g></g></g><g clip-path="url(#cp30)"><g clip-path="url(#cp31)"><g clip-path="url(#cp32)"><path fill-rule="evenodd" class="b" d="m355.9 139.9c-1.6-0.5-2.7-0.5-3.7 0-7.5 3.9-15 7.8-21.8 13-1.5 1.2-2.6 2.6-3.7 4.1-0.6 0.9-1.3 1.7-2.3 2.1-0.5 0.3-1 0.6-0.6 1.3 0.3 0.5 0.7 0.2 1.2 0.2 11.5-2 20.6-9.1 30.6-14.2 1.7-0.8 2.4-2.4 2.2-4.2-0.1-1.5-1.1-2.1-1.9-2.3z"/></g></g></g><g clip-path="url(#cp33)"><g clip-path="url(#cp34)"><g clip-path="url(#cp35)"><path fill-rule="evenodd" class="b" d="m353.8 215.1c-5-1.6-10.1-2.9-15.2-4.1-3.1-0.8-6.1-0.7-9.1 0.6-0.5 0.2-1.3 0.2-1.2 1 0.1 0.9 0.9 0.4 1.4 0.3q1.2-0.1 2.1 0.6c3 2.1 6.4 3.2 9.9 4.2 8.4 2.4 16.8 4.7 25.4 6.5 1.6 0.4 3.1 0.3 4.5-0.7 1.6-1.1 1.6-2.1-0.2-3.1-0.7-0.3-1.4-0.5-2.1-0.8-5.1-1.7-10.3-3.1-15.5-4.5z"/></g></g></g><g clip-path="url(#cp36)"><g clip-path="url(#cp37)"><g clip-path="url(#cp38)"><path fill-rule="evenodd" class="b" d="m323.8 282.6c1.6 0.5 2.7 0.2 3.4-1.1 0.6-1.1 0-1.9-0.8-2.8-2.6-2.7-4.6-5.8-6.9-8.8-4.4-6.1-9.2-11.9-15.5-16.2-0.4-0.3-0.8-0.8-1.3-0.4-0.4 0.4-0.2 0.8 0.1 1.1 1.8 1.8 2.5 4.2 3.8 6.3 4.3 7 9.4 13.4 14.5 19.8 0.7 1 1.6 2 2.7 2.1z"/></g></g></g><g clip-path="url(#cp39)"><g clip-path="url(#cp40)"><g clip-path="url(#cp41)"><path fill-rule="evenodd" class="b" d="m328.6 247.7c0.8 0.3 1.6 0.1 2.2-0.6 0.6-0.6 0.9-1.4 0.3-2-2.1-2.4-3.1-5.8-5.9-7.7-0.5-0.3-0.8-0.8-1.4-0.5-0.7 0.3-0.3 0.9-0.3 1.4 0 3 1 5.6 2.9 7.9 0.5 0.7 1.2 1.2 2.2 1.5z"/></g></g></g><g clip-path="url(#cp42)"><g clip-path="url(#cp43)"><g clip-path="url(#cp44)"><path fill-rule="evenodd" class="b" d="m331.9 181.3c2.2-0.2 4.1-1.3 6.1-2.1 1.2-0.5 2.4-1.1 3.6-1.7 0.4-0.3 1.1-0.4 0.7-1.2-0.2-0.6-0.8-0.3-1.2-0.2-3.6 0.8-6.4 3-9.2 5.2z"/></g></g></g><path  d="m582.4 110.3q2.7 0 4.7 1.9 2 1.9 2 4.6 0 2.9-2 4.8-2 1.9-4.7 1.9h-83.3l-12.3 77.1h76.3q2.7 0 4.7 2 2 2 2 4.7 0 2.7-2 4.7-2 2-4.7 2h-78.5l-11 69.3h81.2q2.6 0 4.7 2.1 2 2 2 4.7 0 2.6-2 4.7-2.1 2-4.7 2h-88.9q-3 0-5.1-2.5-1.9-2.4-1.4-5.3l27.4-173.3q1.1-5.4 6.7-5.4z"/><path  d="m702.5 153.6q4.6 45.9-85.7 59.1l62.3 70.9q1.9 2.2 1.6 5-0.2 2.8-2.4 4.7-1.9 1.9-4.7 1.6-2.8-0.3-4.7-2.4l-61.2-69.6-10.8 66.3q-1 5.7-6.7 5.7-0.5 0-1.1 0-2.6-0.6-4.4-2.8-1.7-2.3-1.2-5l28.5-173.3q0.8-5.3 6.4-5.6 0.8 0 6.9 0.1 6 0.2 15.1 1.3 9.2 1 19.4 3.7 10.2 2.7 19.5 7.7 9.2 4.9 15.6 12.9 6.3 7.9 7.6 19.7zm-91.1 46.2q14.5-1.9 28.8-5.2 14.2-3.4 25.6-8.8 11.4-5.4 17.8-12.9 6.3-7.5 5.5-18-1.1-8.6-6.4-14.3-5.2-5.8-13.1-9.6-7.9-3.7-16.5-5.6-8.6-1.9-16.3-2.7-7.6-0.8-12.5-1.1z"/><path  d="m829 107.1q3 0.6 4.6 2.8 1.6 2.3 1.1 5l-26.9 174.9q-0.8 5.4-5.9 5.6-5.4 0.6-7-4.3l-52.1-149.6-24.2 148.3q-1.1 5.9-6.7 5.9-0.5 0-1.1-0.3-2.9-0.2-4.6-2.5-1.6-2.3-1-5.3l28.5-174.8q0.8-5.1 6.1-5.7 5.1-0.3 7 4.6l51.9 149.1 22.5-147.8q0.6-2.9 2.8-4.5 2.3-1.7 5-1.4z"/><path  d="m916 112.8l15.6 174.8q0.3 2.7-1.5 4.9-1.7 2.1-4.4 2.4-3 0-5-1.8-2-1.7-2.2-4.4l-6.7-73.9-38.7 0.3-32.8 76q-1.6 4.1-6.2 4.1-1.3 0-2.4-0.6-2.7-1-3.6-3.6-1-2.5 0.1-5l75.2-175.4q1.9-4.8 7-4 5.1 0.8 5.6 6.2zm-37.3 89.1l32-0.2-5.4-61.5z"/><path  d="m1130.9 133.7q8.1 12.6 10.4 28.8 2.3 16.1 0.4 32.6-1.9 16.5-6.7 30.8-4.9 14.2-11.6 23-11 14.3-25.7 25-14.6 10.8-30.6 16.8-15.9 6.1-31 6.1-2.7 0-5.6-0.3-2.7-0.3-4.6-2.4-1.9-2.4-1.3-5.4l27.6-175.1q0.8-5.4 5.9-5.7 0.8 0 6.6-0.2 5.8-0.3 14.5 0.5 8.7 0.8 18.5 3.4 9.9 2.5 18.6 7.9 8.7 5.3 14.6 14.2zm-18.2 107.2q5.9-7.5 10-20.2 4.2-12.6 5.8-27.1 1.6-14.5-0.3-28.4-1.8-14-8.5-24.2-4.4-7-11.7-11-7.4-4.1-15.8-6.1-8.3-2-15.7-2.5-7.4-0.6-11.9-0.6l-25.8 162.5q12.9-0.5 26.3-5.9 13.5-5.3 25.8-14.7 12.4-9.4 21.8-21.8z"/><path  d="m1165.6 289q-0.8 5.6-6.7 5.6-0.6 0-1.1 0-2.7-0.5-4.4-2.8-1.8-2.3-1.3-5l27.7-173.8q0.6-2.9 2.8-4.5 2.3-1.7 5-1.1 3 0.3 4.6 2.5 1.6 2.3 1.1 5.3z"/><path  d="m1364.9 107.4q5.6 1.9 4.8 7.5l-26.8 174.6q-0.6 2.7-2.9 4.3-2.2 1.6-4.9 1.4-2.7-0.6-4.5-2.9-1.7-2.2-1.2-4.9l20.4-133.8-70.3 135.6q-2.2 4.4-7 3.8-4.6-0.8-5.7-5.4l-31.9-139.4-24.7 141.9q-0.8 5.6-6.5 5.6-0.8 0-1.3-0.3-2.7-0.5-4.3-2.8-1.6-2.3-1.1-5l30.1-174.8q1.1-5.4 6.7-5.7 2.1 0 4.2 1.5 2 1.5 2.5 3.9l35.5 154.2 80.8-155.8q2.7-5.1 8.1-3.5z"/><path  d="m1451.1 112.8l15.6 174.8q0.3 2.7-1.5 4.9-1.7 2.1-4.4 2.4-3 0-5-1.8-2-1.7-2.3-4.4l-6.7-73.9-38.7 0.3-32.7 76q-1.6 4.1-6.2 4.1-1.4 0-2.4-0.6-2.7-1-3.7-3.6-0.9-2.5 0.2-5l75.2-175.4q1.9-4.8 7-4 5.1 0.8 5.6 6.2zm-37.3 89.1l31.9-0.2-5.3-61.5z"/></svg>